<svg width="40" height="40" viewBox="0 0 40 40" fill="none" xmlns="http://www.w3.org/2000/svg">
<path fill-rule="evenodd" clip-rule="evenodd" d="M19.9657 40C30.9925 40 39.9315 31.0457 39.9315 20C39.9315 8.95431 30.9925 0 19.9657 0C8.93894 0 0 8.95431 0 20C0 31.0457 8.93894 40 19.9657 40ZM26.1943 9.31684C26.4975 8.23805 25.4524 7.60013 24.498 8.2813L11.1739 17.7896C10.1388 18.5283 10.3016 20 11.4185 20H14.9271V19.9728H21.7651L16.1934 21.9421L13.7371 30.6832C13.434 31.762 14.479 32.3999 15.4335 31.7187L28.7575 22.2105C29.7927 21.4718 29.6297 20 28.513 20H23.1923L26.1943 9.31684Z" fill="#151515"/>
</svg>
